<svg width="513" height="513" viewBox="0 0 513 513" fill="none" xmlns="http://www.w3.org/2000/svg">
<g filter="url(#filter0_f_14_3241)">
<path d="M374.129 343.848C392.58 338.172 426.313 322.238 438.598 310.123C452.731 297.475 424.47 282.206 421.128 279.928C417.787 277.651 253.184 181.373 224.428 166.389C195.672 151.406 102.707 179.117 80.0318 192.329C61.5485 203.099 74.2071 211.369 76.5779 213.622C78.9487 215.875 215.823 305.567 265.141 333.133C302.489 354.009 337.912 354.99 374.129 343.848Z" fill="black" fill-opacity="0.2"/>
</g>
<path fill-rule="evenodd" clip-rule="evenodd" d="M244.501 243.97L263.21 234.917L263.215 234.929C263.335 234.868 263.456 234.809 263.578 234.752C274.718 229.543 290.096 242.375 297.925 263.414C305.755 284.453 303.072 305.732 291.932 310.941C291.779 311.013 291.626 311.081 291.471 311.145L273.427 319.889L264.154 295.55C261.652 291.658 259.412 287.192 257.584 282.279C255.898 277.748 254.699 273.207 253.968 268.817L244.501 243.97Z" fill="black"/>
<ellipse cx="22.6279" cy="40.0373" rx="22.6279" ry="40.0373" transform="matrix(-0.891412 0.416839 0.353822 0.950733 265.211 234.354)" fill="black"/>
<g filter="url(#filter1_i_14_3241)">
<ellipse cx="16.9718" cy="30.0294" rx="16.9718" ry="30.0294" transform="matrix(-0.891412 0.416839 0.353822 0.950733 263.079 246.232)" fill="url(#paint0_linear_14_3241)"/>
</g>
<g filter="url(#filter2_di_14_3241)">
<path fill-rule="evenodd" clip-rule="evenodd" d="M261.055 260.783C262.936 262.319 264.759 264.337 266.42 266.751L261.408 275.856C261.177 275.539 260.939 275.241 260.695 274.964L261.055 260.783ZM260.277 291.472C260.396 291.488 260.515 291.497 260.633 291.501L267.466 305.557L267.409 305.584C265.114 306.657 262.531 306.503 259.925 305.342L260.277 291.472ZM257.716 304.122L258.061 290.532C257.569 290.186 257.084 289.754 256.616 289.245L251.663 298.244C253.554 300.741 255.618 302.739 257.716 304.122ZM258.502 273.126L258.855 259.223C255.711 257.33 252.52 256.836 249.75 258.132C248.976 258.493 248.268 258.979 247.627 259.576L254.328 273.363C254.576 273.134 254.85 272.946 255.148 272.807C256.171 272.329 257.341 272.478 258.502 273.126ZM246.007 287.737C247.175 290.874 248.612 293.719 250.218 296.186L255.131 287.26C254.724 286.6 254.349 285.875 254.016 285.097L245.851 287.312C245.902 287.454 245.954 287.595 246.007 287.737ZM262.752 278.099L267.804 268.92C269.063 271.046 270.198 273.415 271.152 275.979C271.384 276.603 271.602 277.228 271.805 277.852L263.58 280.083C263.539 279.966 263.497 279.849 263.454 279.732C263.241 279.162 263.006 278.616 262.752 278.099ZM245.112 285.094C243.948 281.291 243.331 277.534 243.23 274.071L252.747 280.544C252.85 281.308 253.013 282.095 253.237 282.89L245.112 285.094ZM264.205 282.333C264.454 283.531 264.561 284.694 264.533 285.767L273.911 292.146C274.079 288.456 273.613 284.321 272.47 280.09L264.205 282.333ZM273.673 294.779L264.163 288.309C263.866 289.325 263.396 290.156 262.763 290.717L269.362 304.294C271.641 302.281 273.103 298.91 273.673 294.779ZM243.262 271.298L252.645 277.681C252.697 276.987 252.808 276.338 252.978 275.75L246.039 261.475C244.419 263.937 243.475 267.356 243.262 271.298Z" fill="#4C4C4C"/>
</g>
<path fill-rule="evenodd" clip-rule="evenodd" d="M244.523 243.537L263.232 234.484L263.234 234.489C263.35 234.431 263.466 234.374 263.583 234.319C274.723 229.11 290.101 241.943 297.931 262.982C305.76 284.021 303.077 305.3 291.937 310.509C291.825 310.562 291.713 310.612 291.6 310.661L273.45 319.456L264.201 295.183C261.683 291.275 259.428 286.787 257.589 281.847C255.893 277.289 254.69 272.72 253.96 268.305L244.523 243.537Z" fill="black"/>
<path d="M238.821 291.278C246.645 312.3 262.018 325.119 273.158 319.91C284.298 314.701 286.987 293.436 279.163 272.413C271.339 251.391 255.522 237.439 244.382 242.648C233.242 247.857 230.997 270.255 238.821 291.278Z" fill="#2D2C2C"/>
<g filter="url(#filter3_i_14_3241)">
<ellipse cx="15.583" cy="29.4949" rx="15.583" ry="29.4949" transform="matrix(-0.906194 0.436713 0.335365 0.938437 263.002 247.375)" fill="url(#paint1_linear_14_3241)"/>
</g>
<g filter="url(#filter4_di_14_3241)">
<path fill-rule="evenodd" clip-rule="evenodd" d="M250.434 291.77C253.225 297.149 256.906 300.969 260.479 302.364L255.779 289.48L250.434 291.77ZM247.789 285.319C245.524 278.097 245.461 270.993 247.319 266.289L252.8 281.313C252.905 281.87 253.038 282.434 253.199 283.001L247.789 285.319ZM263.591 278.547C261.821 274.196 258.874 271.365 256.369 271.463L252.533 260.946C258.078 259.464 265.16 265.94 269.008 276.226L263.591 278.547ZM270.904 282.999L265.038 285.512C265.049 287.84 264.52 289.822 263.503 291.017L267.342 301.54C271.108 298.538 272.44 291.178 270.904 282.999Z" fill="#A9A8A8"/>
</g>
<path fill-rule="evenodd" clip-rule="evenodd" d="M107.702 162.858L124.095 158.593L124.097 158.605C124.201 158.576 124.306 158.548 124.411 158.522C134.147 156.13 144.911 169.109 148.453 187.512C151.995 205.916 146.974 222.774 137.238 225.167C137.096 225.202 136.954 225.233 136.812 225.262L121.03 229.378L116.762 208.076C115.248 204.491 114.024 200.483 113.196 196.177C112.431 192.205 112.066 188.306 112.06 184.608L107.702 162.858Z" fill="black"/>
<ellipse cx="18.8325" cy="32.8229" rx="18.8325" ry="32.8229" transform="matrix(-0.936087 0.230026 0.195248 1.01442 125.774 158.467)" fill="black"/>
<g filter="url(#filter5_i_14_3241)">
<ellipse cx="14.1251" cy="24.6185" rx="14.1251" ry="24.6185" transform="matrix(-0.936087 0.230026 0.195248 1.01442 122.465 167.772)" fill="url(#paint2_linear_14_3241)"/>
</g>
<g filter="url(#filter6_di_14_3241)">
<path fill-rule="evenodd" clip-rule="evenodd" d="M118.847 179.237C120.177 180.802 121.395 182.755 122.427 185.006L117.138 191.588C116.987 191.279 116.827 190.987 116.66 190.712L118.847 179.237ZM114.11 204.087C114.217 204.125 114.325 204.156 114.434 204.181L118.097 216.732L118.04 216.746C116.025 217.241 113.941 216.681 111.973 215.293L114.11 204.087ZM110.364 213.948L112.458 202.964C112.103 202.6 111.766 202.166 111.453 201.672L106.238 208.162C107.438 210.507 108.846 212.475 110.364 213.948ZM115.143 188.882L117.289 177.628C114.992 175.571 112.47 174.644 110.051 175.239C109.374 175.405 108.733 175.684 108.133 176.063L111.727 188.38C111.958 188.236 112.203 188.13 112.462 188.067C113.356 187.847 114.286 188.163 115.143 188.882ZM103.057 198.692C103.586 201.437 104.372 203.988 105.346 206.26L110.519 199.823C110.278 199.222 110.071 198.574 109.905 197.89L102.991 198.34C103.013 198.457 103.035 198.575 103.057 198.692ZM117.924 193.621L123.256 186.987C123.996 188.928 124.601 191.045 125.034 193.292C125.139 193.838 125.232 194.383 125.313 194.924L118.333 195.378C118.315 195.276 118.297 195.175 118.277 195.073C118.181 194.571 118.062 194.086 117.924 193.621ZM102.684 196.396C102.249 193.119 102.25 189.969 102.627 187.142L109.479 193.974C109.461 194.609 109.488 195.27 109.563 195.948L102.684 196.396ZM118.54 197.328C118.58 198.338 118.512 199.296 118.347 200.158L125.11 206.903C125.74 203.934 125.916 200.498 125.556 196.872L118.54 197.328ZM124.561 209.015L117.702 202.175C117.327 202.945 116.838 203.538 116.254 203.889L119.795 216.022C121.91 214.765 123.546 212.272 124.561 209.015ZM103.025 184.879L109.78 191.616C109.917 191.051 110.097 190.534 110.318 190.079L106.599 177.337C104.951 179.072 103.726 181.701 103.025 184.879Z" fill="#4C4C4C"/>
</g>
<path fill-rule="evenodd" clip-rule="evenodd" d="M107.637 163.334L124.029 159.069L124.03 159.073C124.133 159.044 124.237 159.017 124.341 158.991C134.077 156.598 144.841 169.578 148.383 187.981C151.925 206.384 146.904 223.243 137.168 225.635C137.074 225.658 136.98 225.68 136.887 225.7L120.964 229.853L116.697 208.557C115.181 204.969 113.955 200.956 113.126 196.645C112.36 192.669 111.995 188.765 111.99 185.063L107.637 163.334Z" fill="black"/>
<ellipse cx="19.0418" cy="33.1876" rx="19.0418" ry="33.1876" transform="matrix(-0.936087 0.230026 0.195248 1.01442 125.842 158.117)" fill="#2C2C2C"/>
<g filter="url(#filter7_i_14_3241)">
<g filter="url(#filter8_i_14_3241)">
<ellipse cx="13.2439" cy="23.7814" rx="13.2439" ry="23.7814" transform="matrix(-0.924015 0.28721 0.258878 0.995807 119.442 170.939)" fill="url(#paint3_linear_14_3241)"/>
</g>
<g filter="url(#filter9_di_14_3241)">
<path fill-rule="evenodd" clip-rule="evenodd" d="M105.195 205.343C106.937 210.023 109.536 213.608 112.293 215.278L109.822 204.36L105.195 205.343ZM103.595 199.446C102.482 193.236 103.178 187.479 105.21 183.979L108.16 197.013C108.189 197.48 108.239 197.958 108.312 198.443L103.595 199.446ZM117.354 196.523C116.346 192.712 114.202 189.946 112.12 189.633L110.058 180.519C114.79 180.212 119.957 186.588 122.055 195.524L117.354 196.523ZM122.924 201.576L117.781 202.669C117.518 204.432 116.885 205.844 115.96 206.603L118.022 215.714C121.402 213.923 123.27 208.316 122.924 201.576Z" fill="#A9A8A8"/>
</g>
</g>
<g filter="url(#filter10_ii_14_3241)">
<path fill-rule="evenodd" clip-rule="evenodd" d="M350.547 158.478C350.945 158.87 351.371 159.235 351.846 159.529C352.357 159.845 352.827 160.077 353.256 160.216C360.061 162.431 416.612 198.902 428.778 213.291C440.617 227.293 439.734 235.46 439.323 239.252C439.264 239.799 439.215 240.255 439.215 240.625C439.216 242.467 439.11 246.172 438.974 250.886C438.895 253.662 438.805 256.787 438.721 260.089L438.437 271.306C438.392 272.143 438.373 272.998 438.355 273.871C438.275 277.578 438.188 281.609 436.032 285.973C433.373 291.352 420.699 311.002 361.124 330.123C340.923 336.606 317.86 328.248 303.202 321.04C297.991 318.725 293.865 316.501 291.344 315.064C290.761 314.732 290.279 314.278 289.912 313.745C289.868 313.681 289.813 313.627 289.748 313.587C289.254 313.286 288.944 312.76 288.913 312.183C288.615 306.626 287.639 299.026 286.149 291.41C284.371 282.867 281.953 274.385 279.205 268.823C272.75 255.762 258.719 239.5 247.258 243.567C234.25 248.183 234.717 268.796 234.84 273.719C234.876 275.166 235.003 276.134 235.127 277.091C235.158 277.327 235.168 277.556 235.158 277.777C235.135 278.303 235.144 278.836 235.242 279.353C235.261 279.455 235.279 279.564 235.295 279.682C235.534 281.451 233.47 282.488 231.945 281.56C231.568 281.33 231.132 281.227 230.695 281.159C230.162 281.076 229.626 280.888 229.116 280.581L135.43 224.122C134.255 223.414 133.447 222.216 133.369 220.843C133.246 218.671 133.313 216.222 133.387 213.538C133.628 204.821 133.938 193.617 127.988 181.285C122.549 170.013 114.4 162.437 106.767 164.884C99.1328 167.331 96.845 176.336 96.3044 181.37C95.7736 186.314 95.8991 190.866 95.9718 193.507C96.0011 194.569 96.0218 195.322 95.9878 195.666C95.8693 196.864 85.2386 186.169 84.639 182.181C82.814 170.044 82.6568 158.719 84.0866 146.483C84.3046 144.618 85.0084 140.106 85.5552 137.897C85.7034 137.298 85.795 136.686 85.7871 136.071C85.7334 131.879 86.5322 126.052 87.5956 123.55C87.6942 123.318 87.7908 123.074 87.8922 122.817L87.8924 122.817C89.0769 119.82 90.9268 115.139 104.428 108.851C123.598 99.9215 175.681 80.2826 177.688 79.8436C182.43 78.8064 188.454 79.4566 193.331 79.9829C196.192 80.2918 198.658 80.558 200.239 80.4156C223.07 78.3602 249.37 82.5224 283.694 102.924C288.302 105.242 292.848 107.868 297.24 110.846C308.211 118.284 317.414 126.12 325.049 133.309C333.962 141.277 340.81 148.41 345.727 153.532C347.617 155.5 349.221 157.171 350.547 158.478Z" fill="url(#paint4_linear_14_3241)"/>
</g>
<g filter="url(#filter11_ddi_14_3241)">
<path d="M258.626 200.404C246.338 194.369 239.723 175.646 221.837 153.303C220.873 152.1 221.325 150.29 222.756 149.695L300.199 117.458C300.577 117.301 300.987 117.252 301.371 117.387C303.527 118.145 311.9 122.191 332.282 143.147C343.262 154.435 345.443 157.358 351.149 161.862C352.051 162.575 351.853 164.088 348.395 167.098C337.37 176.693 277.13 209.493 258.626 200.404Z" fill="url(#paint5_linear_14_3241)"/>
</g>
<g filter="url(#filter12_di_14_3241)">
<path d="M171.21 124.027C154.715 117.784 150.433 117.642 138.962 116.631C131.069 115.935 118.484 116.916 117.014 120.837C115.544 124.758 130.425 137.567 136.617 141.595C139.644 143.564 244.203 205.325 241.008 198.258C237.071 189.552 218.571 164.497 212.294 154.298C201.829 137.295 187.705 130.271 171.21 124.027Z" fill="url(#paint6_linear_14_3241)"/>
</g>
<g filter="url(#filter13_di_14_3241)">
<path d="M133.784 111.424L204.408 81.5905C204.408 81.5905 202.827 82.1639 194.263 81.8063C191.275 81.6815 117.97 112.949 117.428 113.453L133.784 111.424Z" fill="url(#paint7_linear_14_3241)"/>
</g>
<g filter="url(#filter14_f_14_3241)">
<path d="M289.625 243.834C263.161 229.301 248.535 211.529 232.785 195.223C280.489 212.297 380.298 249.542 378.663 251.76C376.619 254.532 369.303 257.696 345.227 258.887C321.525 260.059 292.655 245.498 289.625 243.834Z" fill="url(#paint8_linear_14_3241)" fill-opacity="0.21"/>
</g>
<g filter="url(#filter15_f_14_3241)">
<path d="M394.849 180.338C393.361 178.907 374.775 156.371 360.719 145.029C371.916 171.028 397.512 227.57 400.032 227.354C403.181 227.084 417.626 224.458 422.134 213.7C426.573 203.109 396.71 182.127 394.849 180.338Z" fill="url(#paint9_linear_14_3241)" fill-opacity="0.13"/>
</g>
<g filter="url(#filter16_di_14_3241)">
<path d="M195.256 200.401C195.274 199.688 194.9 199.008 194.3 198.664L186.76 194.338C185.644 193.698 184.341 194.476 184.307 195.803C184.289 196.521 184.665 197.204 185.269 197.549L192.815 201.862C193.926 202.497 195.222 201.721 195.256 200.401Z" fill="#323232"/>
</g>
<g filter="url(#filter17_di_14_3241)">
<path d="M144.592 173.932C144.61 173.218 144.236 172.539 143.636 172.194L136.096 167.868C134.981 167.228 133.677 168.007 133.643 169.333C133.625 170.051 134.002 170.734 134.606 171.079L142.151 175.392C143.262 176.027 144.558 175.251 144.592 173.932Z" fill="#323232"/>
</g>
<g filter="url(#filter18_f_14_3241)">
<path d="M219.627 268.937L140.253 223.104C139.177 222.482 138.403 221.453 138.112 220.244C135.959 211.313 132.397 195.731 132.397 192.364C132.397 187.84 234.556 245.216 230.672 255.353C229.576 258.213 228.94 261.044 228.607 263.639C228.093 267.64 223.108 270.946 219.627 268.937Z" fill="url(#paint10_linear_14_3241)" fill-opacity="0.12"/>
</g>
<path d="M311.179 188.698L251.317 137.662C244.264 139.591 228.134 147.112 225.067 148.302C221.093 149.844 220.416 150.743 220.416 150.743C220.382 152.062 220.974 152.655 222.83 154.765C225.492 157.791 226.616 159.181 233.152 168.975C242.565 183.078 249.667 196.159 256.713 199.433C262.318 202.038 271.102 204.415 283.798 200.12C295.146 196.282 302.185 191.798 311.179 188.698Z" fill="#C4C4C4" fill-opacity="0.2"/>
<g opacity="0.17" filter="url(#filter19_f_14_3241)">
<path d="M418.562 230.655C401.538 244.877 363.962 264.87 347.34 267.643" stroke="url(#paint11_linear_14_3241)" stroke-width="75.7446" stroke-linecap="round" stroke-linejoin="round"/>
</g>
<g filter="url(#filter20_ddii_14_3241)">
<path d="M431.141 236.32C434.431 231.642 433.702 227.803 433.375 221.871C433.357 221.549 433.301 221.23 433.226 220.917C432.198 216.642 437.844 226.51 438.297 233.286C438.449 235.565 438.289 236.713 438.043 238.807C437.931 239.765 436.005 245.582 436.237 246.854C436.469 248.126 435.668 256.833 435.674 258.153C435.681 259.472 430.48 269.155 417.229 278.285C406.221 285.869 390.572 290.634 388.975 290.848C387.378 291.062 385.969 285.09 384.822 284.733C381.822 283.799 372.802 287.217 369.445 288.064C365.529 289.052 356.391 291.328 346.51 289.66C334.288 287.597 332.45 286 321.347 278.889C315.821 275.349 311.578 269.439 309.033 264.618C307.513 261.741 310.109 259.318 313.131 260.524C321.696 263.942 335.585 269.226 351.067 271.389C378.06 275.161 399.804 261.405 402.92 259.427C416.016 251.113 422.86 248.09 431.141 236.32Z" fill="#272727"/>
</g>
<mask id="mask0_14_3241" style="mask-type:alpha" maskUnits="userSpaceOnUse" x="308" y="231" width="132" height="60">
<path d="M431.141 236.26C431.411 235.876 431.656 235.484 431.878 235.087C434.051 231.195 439.115 229.135 439.607 233.526C439.76 235.805 439.674 237.248 439.43 239.342C439.319 240.3 436.011 245.518 436.244 246.79C436.476 248.062 435.68 256.77 435.687 258.089C435.695 259.408 430.499 269.095 417.253 278.234C406.25 285.826 390.604 290.602 389.007 290.817C387.409 291.032 385.997 285.062 384.851 284.706C381.85 283.773 372.831 287.199 369.475 288.048C365.559 289.039 356.423 291.321 346.541 289.66C334.318 287.606 332.479 286.01 321.372 278.906C315.844 275.371 311.598 269.464 309.049 264.645C307.528 261.768 310.12 259.342 313.141 260.546C321.707 263.958 335.601 269.233 351.088 271.386C378.082 275.139 399.819 261.367 402.933 259.387C416.024 251.064 422.867 248.036 431.141 236.26Z" fill="#999999"/>
</mask>
<g mask="url(#mask0_14_3241)">
<g filter="url(#filter21_d_14_3241)">
<path d="M362.133 265.813C362.179 266.019 362.224 266.25 362.264 266.503C362.437 267.595 362.502 269.01 362.144 270.438C361.795 271.833 361.038 273.268 359.497 274.485C357.934 275.72 355.448 276.822 351.501 277.309C346.785 277.89 338.681 276.877 333.594 272.134C332.256 270.886 330.567 268.362 329.146 265.986C328.809 265.424 328.495 264.882 328.212 264.384L362.133 265.813Z" stroke="white" stroke-opacity="0.9" stroke-width="3.41524"/>
</g>
<g filter="url(#filter22_d_14_3241)">
<path d="M433.233 225.793C433.323 226.069 433.411 226.364 433.491 226.673C434.052 228.839 434.258 231.725 432.896 234.766C432.53 235.582 432.078 235.993 431.763 236.125C431.623 236.184 431.512 236.189 431.412 236.169C431.31 236.149 431.134 236.084 430.891 235.868C430.162 235.223 429.228 235.008 428.559 234.916C428.226 234.871 427.885 234.847 427.548 234.838L433.233 225.793Z" stroke="white" stroke-opacity="0.9" stroke-width="3.41524"/>
</g>
</g>
<defs>
<filter id="filter0_f_14_3241" x="60.1464" y="152.064" width="392.383" height="208.84" filterUnits="userSpaceOnUse" color-interpolation-filters="sRGB">
<feFlood flood-opacity="0" result="BackgroundImageFix"/>
<feBlend mode="normal" in="SourceGraphic" in2="BackgroundImageFix" result="shape"/>
<feGaussianBlur stdDeviation="5" result="effect1_foregroundBlur_14_3241"/>
</filter>
<filter id="filter1_i_14_3241" x="240.087" y="252.436" width="36.9773" height="58.8407" filterUnits="userSpaceOnUse" color-interpolation-filters="sRGB">
<feFlood flood-opacity="0" result="BackgroundImageFix"/>
<feBlend mode="normal" in="SourceGraphic" in2="BackgroundImageFix" result="shape"/>
<feColorMatrix in="SourceAlpha" type="matrix" values="0 0 0 0 0 0 0 0 0 0 0 0 0 0 0 0 0 0 127 0" result="hardAlpha"/>
<feMorphology radius="1.14765" operator="erode" in="SourceAlpha" result="effect1_innerShadow_14_3241"/>
<feOffset/>
<feGaussianBlur stdDeviation="0.573823"/>
<feComposite in2="hardAlpha" operator="arithmetic" k2="-1" k3="1"/>
<feColorMatrix type="matrix" values="0 0 0 0 0 0 0 0 0 0 0 0 0 0 0 0 0 0 0.25 0"/>
<feBlend mode="normal" in2="shape" result="effect1_innerShadow_14_3241"/>
</filter>
<filter id="filter2_di_14_3241" x="239.787" y="257.179" width="34.8459" height="51.4235" filterUnits="userSpaceOnUse" color-interpolation-filters="sRGB">
<feFlood flood-opacity="0" result="BackgroundImageFix"/>
<feColorMatrix in="SourceAlpha" type="matrix" values="0 0 0 0 0 0 0 0 0 0 0 0 0 0 0 0 0 0 127 0" result="hardAlpha"/>
<feOffset dy="0.459058"/>
<feGaussianBlur stdDeviation="0.344294"/>
<feColorMatrix type="matrix" values="0 0 0 0 1 0 0 0 0 1 0 0 0 0 1 0 0 0 0.41 0"/>
<feBlend mode="normal" in2="BackgroundImageFix" result="effect1_dropShadow_14_3241"/>
<feBlend mode="normal" in="SourceGraphic" in2="effect1_dropShadow_14_3241" result="shape"/>
<feColorMatrix in="SourceAlpha" type="matrix" values="0 0 0 0 0 0 0 0 0 0 0 0 0 0 0 0 0 0 127 0" result="hardAlpha"/>
<feOffset dx="-3.44294" dy="2.29529"/>
<feGaussianBlur stdDeviation="1.72147"/>
<feComposite in2="hardAlpha" operator="arithmetic" k2="-1" k3="1"/>
<feColorMatrix type="matrix" values="0 0 0 0 0 0 0 0 0 0 0 0 0 0 0 0 0 0 0.25 0"/>
<feBlend mode="normal" in2="shape" result="effect2_innerShadow_14_3241"/>
</filter>
<filter id="filter3_i_14_3241" x="241.53" y="253.349" width="34.4849" height="57.0201" filterUnits="userSpaceOnUse" color-interpolation-filters="sRGB">
<feFlood flood-opacity="0" result="BackgroundImageFix"/>
<feBlend mode="normal" in="SourceGraphic" in2="BackgroundImageFix" result="shape"/>
<feColorMatrix in="SourceAlpha" type="matrix" values="0 0 0 0 0 0 0 0 0 0 0 0 0 0 0 0 0 0 127 0" result="hardAlpha"/>
<feMorphology radius="2.84604" operator="erode" in="SourceAlpha" result="effect1_innerShadow_14_3241"/>
<feOffset/>
<feGaussianBlur stdDeviation="1.42302"/>
<feComposite in2="hardAlpha" operator="arithmetic" k2="-1" k3="1"/>
<feColorMatrix type="matrix" values="0 0 0 0 0 0 0 0 0 0 0 0 0 0 0 0 0 0 0.25 0"/>
<feBlend mode="normal" in2="shape" result="effect1_innerShadow_14_3241"/>
</filter>
<filter id="filter4_di_14_3241" x="242.362" y="260.493" width="30.3813" height="44.2976" filterUnits="userSpaceOnUse" color-interpolation-filters="sRGB">
<feFlood flood-opacity="0" result="BackgroundImageFix"/>
<feColorMatrix in="SourceAlpha" type="matrix" values="0 0 0 0 0 0 0 0 0 0 0 0 0 0 0 0 0 0 127 0" result="hardAlpha"/>
<feOffset dy="0.970617"/>
<feGaussianBlur stdDeviation="0.606636"/>
<feColorMatrix type="matrix" values="0 0 0 0 1 0 0 0 0 1 0 0 0 0 1 0 0 0 0.59 0"/>
<feBlend mode="normal" in2="BackgroundImageFix" result="effect1_dropShadow_14_3241"/>
<feBlend mode="normal" in="SourceGraphic" in2="effect1_dropShadow_14_3241" result="shape"/>
<feColorMatrix in="SourceAlpha" type="matrix" values="0 0 0 0 0 0 0 0 0 0 0 0 0 0 0 0 0 0 127 0" result="hardAlpha"/>
<feOffset dx="-3.63981" dy="2.42654"/>
<feGaussianBlur stdDeviation="1.81991"/>
<feComposite in2="hardAlpha" operator="arithmetic" k2="-1" k3="1"/>
<feColorMatrix type="matrix" values="0 0 0 0 0 0 0 0 0 0 0 0 0 0 0 0 0 0 0.25 0"/>
<feBlend mode="normal" in2="shape" result="effect2_innerShadow_14_3241"/>
</filter>
<filter id="filter5_i_14_3241" x="99.9767" y="170.807" width="28.1455" height="50.3735" filterUnits="userSpaceOnUse" color-interpolation-filters="sRGB">
<feFlood flood-opacity="0" result="BackgroundImageFix"/>
<feBlend mode="normal" in="SourceGraphic" in2="BackgroundImageFix" result="shape"/>
<feColorMatrix in="SourceAlpha" type="matrix" values="0 0 0 0 0 0 0 0 0 0 0 0 0 0 0 0 0 0 127 0" result="hardAlpha"/>
<feMorphology radius="0.947741" operator="erode" in="SourceAlpha" result="effect1_innerShadow_14_3241"/>
<feOffset/>
<feGaussianBlur stdDeviation="0.47387"/>
<feComposite in2="hardAlpha" operator="arithmetic" k2="-1" k3="1"/>
<feColorMatrix type="matrix" values="0 0 0 0 0 0 0 0 0 0 0 0 0 0 0 0 0 0 0.25 0"/>
<feBlend mode="normal" in2="shape" result="effect1_innerShadow_14_3241"/>
</filter>
<filter id="filter6_di_14_3241" x="99.5074" y="174.872" width="26.8016" height="43.947" filterUnits="userSpaceOnUse" color-interpolation-filters="sRGB">
<feFlood flood-opacity="0" result="BackgroundImageFix"/>
<feColorMatrix in="SourceAlpha" type="matrix" values="0 0 0 0 0 0 0 0 0 0 0 0 0 0 0 0 0 0 127 0" result="hardAlpha"/>
<feOffset dy="0.379096"/>
<feGaussianBlur stdDeviation="0.284322"/>
<feColorMatrix type="matrix" values="0 0 0 0 1 0 0 0 0 1 0 0 0 0 1 0 0 0 0.41 0"/>
<feBlend mode="normal" in2="BackgroundImageFix" result="effect1_dropShadow_14_3241"/>
<feBlend mode="normal" in="SourceGraphic" in2="effect1_dropShadow_14_3241" result="shape"/>
<feColorMatrix in="SourceAlpha" type="matrix" values="0 0 0 0 0 0 0 0 0 0 0 0 0 0 0 0 0 0 127 0" result="hardAlpha"/>
<feOffset dx="-2.84322" dy="1.89548"/>
<feGaussianBlur stdDeviation="1.42161"/>
<feComposite in2="hardAlpha" operator="arithmetic" k2="-1" k3="1"/>
<feColorMatrix type="matrix" values="0 0 0 0 0 0 0 0 0 0 0 0 0 0 0 0 0 0 0.25 0"/>
<feBlend mode="normal" in2="shape" result="effect2_innerShadow_14_3241"/>
</filter>
<filter id="filter7_i_14_3241" x="99.6595" y="174.436" width="27.4037" height="47.9775" filterUnits="userSpaceOnUse" color-interpolation-filters="sRGB">
<feFlood flood-opacity="0" result="BackgroundImageFix"/>
<feBlend mode="normal" in="SourceGraphic" in2="BackgroundImageFix" result="shape"/>
<feColorMatrix in="SourceAlpha" type="matrix" values="0 0 0 0 0 0 0 0 0 0 0 0 0 0 0 0 0 0 127 0" result="hardAlpha"/>
<feMorphology radius="2.84604" operator="erode" in="SourceAlpha" result="effect1_innerShadow_14_3241"/>
<feOffset/>
<feGaussianBlur stdDeviation="1.42302"/>
<feComposite in2="hardAlpha" operator="arithmetic" k2="-1" k3="1"/>
<feColorMatrix type="matrix" values="0 0 0 0 0 0 0 0 0 0 0 0 0 0 0 0 0 0 0.25 0"/>
<feBlend mode="normal" in2="shape" result="effect1_innerShadow_14_3241"/>
</filter>
<filter id="filter8_i_14_3241" x="99.6595" y="174.436" width="27.4037" height="47.9775" filterUnits="userSpaceOnUse" color-interpolation-filters="sRGB">
<feFlood flood-opacity="0" result="BackgroundImageFix"/>
<feBlend mode="normal" in="SourceGraphic" in2="BackgroundImageFix" result="shape"/>
<feColorMatrix in="SourceAlpha" type="matrix" values="0 0 0 0 0 0 0 0 0 0 0 0 0 0 0 0 0 0 127 0" result="hardAlpha"/>
<feMorphology radius="0.852955" operator="erode" in="SourceAlpha" result="effect1_innerShadow_14_3241"/>
<feOffset/>
<feGaussianBlur stdDeviation="0.426477"/>
<feComposite in2="hardAlpha" operator="arithmetic" k2="-1" k3="1"/>
<feColorMatrix type="matrix" values="0 0 0 0 0 0 0 0 0 0 0 0 0 0 0 0 0 0 0.25 0"/>
<feBlend mode="normal" in2="shape" result="effect1_innerShadow_14_3241"/>
</filter>
<filter id="filter9_di_14_3241" x="99.4268" y="180.266" width="24.7516" height="37.8749" filterUnits="userSpaceOnUse" color-interpolation-filters="sRGB">
<feFlood flood-opacity="0" result="BackgroundImageFix"/>
<feColorMatrix in="SourceAlpha" type="matrix" values="0 0 0 0 0 0 0 0 0 0 0 0 0 0 0 0 0 0 127 0" result="hardAlpha"/>
<feOffset dy="0.970618"/>
<feGaussianBlur stdDeviation="0.606636"/>
<feColorMatrix type="matrix" values="0 0 0 0 1 0 0 0 0 1 0 0 0 0 1 0 0 0 0.59 0"/>
<feBlend mode="normal" in2="BackgroundImageFix" result="effect1_dropShadow_14_3241"/>
<feBlend mode="normal" in="SourceGraphic" in2="effect1_dropShadow_14_3241" result="shape"/>
<feColorMatrix in="SourceAlpha" type="matrix" values="0 0 0 0 0 0 0 0 0 0 0 0 0 0 0 0 0 0 127 0" result="hardAlpha"/>
<feOffset dx="-3.63982" dy="2.42654"/>
<feGaussianBlur stdDeviation="1.81991"/>
<feComposite in2="hardAlpha" operator="arithmetic" k2="-1" k3="1"/>
<feColorMatrix type="matrix" values="0 0 0 0 0 0 0 0 0 0 0 0 0 0 0 0 0 0 0.25 0"/>
<feBlend mode="normal" in2="shape" result="effect2_innerShadow_14_3241"/>
</filter>
<filter id="filter10_ii_14_3241" x="83.1277" y="56.5243" width="373.471" height="275.928" filterUnits="userSpaceOnUse" color-interpolation-filters="sRGB">
<feFlood flood-opacity="0" result="BackgroundImageFix"/>
<feBlend mode="normal" in="SourceGraphic" in2="BackgroundImageFix" result="shape"/>
<feColorMatrix in="SourceAlpha" type="matrix" values="0 0 0 0 0 0 0 0 0 0 0 0 0 0 0 0 0 0 127 0" result="hardAlpha"/>
<feOffset dx="17.0762" dy="-22.7683"/>
<feGaussianBlur stdDeviation="68.3049"/>
<feComposite in2="hardAlpha" operator="arithmetic" k2="-1" k3="1"/>
<feColorMatrix type="matrix" values="0 0 0 0 0 0 0 0 0 0 0 0 0 0 0 0 0 0 0.07 0"/>
<feBlend mode="normal" in2="shape" result="effect1_innerShadow_14_3241"/>
<feColorMatrix in="SourceAlpha" type="matrix" values="0 0 0 0 0 0 0 0 0 0 0 0 0 0 0 0 0 0 127 0" result="hardAlpha"/>
<feOffset dy="-2.84604"/>
<feGaussianBlur stdDeviation="5.69207"/>
<feComposite in2="hardAlpha" operator="arithmetic" k2="-1" k3="1"/>
<feColorMatrix type="matrix" values="0 0 0 0 0 0 0 0 0 0 0 0 0 0 0 0 0 0 0.09 0"/>
<feBlend mode="normal" in2="effect1_innerShadow_14_3241" result="effect2_innerShadow_14_3241"/>
</filter>
<filter id="filter11_ddi_14_3241" x="216.736" y="113.866" width="137.166" height="91.5563" filterUnits="userSpaceOnUse" color-interpolation-filters="sRGB">
<feFlood flood-opacity="0" result="BackgroundImageFix"/>
<feColorMatrix in="SourceAlpha" type="matrix" values="0 0 0 0 0 0 0 0 0 0 0 0 0 0 0 0 0 0 127 0" result="hardAlpha"/>
<feOffset dx="-2.29529" dy="1.14765"/>
<feGaussianBlur stdDeviation="1.14765"/>
<feColorMatrix type="matrix" values="0 0 0 0 1 0 0 0 0 1 0 0 0 0 1 0 0 0 0.28 0"/>
<feBlend mode="normal" in2="BackgroundImageFix" result="effect1_dropShadow_14_3241"/>
<feColorMatrix in="SourceAlpha" type="matrix" values="0 0 0 0 0 0 0 0 0 0 0 0 0 0 0 0 0 0 127 0" result="hardAlpha"/>
<feOffset dy="-1.14765"/>
<feGaussianBlur stdDeviation="1.14765"/>
<feColorMatrix type="matrix" values="0 0 0 0 1 0 0 0 0 1 0 0 0 0 1 0 0 0 0.56 0"/>
<feBlend mode="normal" in2="effect1_dropShadow_14_3241" result="effect2_dropShadow_14_3241"/>
<feBlend mode="normal" in="SourceGraphic" in2="effect2_dropShadow_14_3241" result="shape"/>
<feColorMatrix in="SourceAlpha" type="matrix" values="0 0 0 0 0 0 0 0 0 0 0 0 0 0 0 0 0 0 127 0" result="hardAlpha"/>
<feOffset dx="-1.14765" dy="3.44294"/>
<feGaussianBlur stdDeviation="1.72147"/>
<feComposite in2="hardAlpha" operator="arithmetic" k2="-1" k3="1"/>
<feColorMatrix type="matrix" values="0 0 0 0 0 0 0 0 0 0 0 0 0 0 0 0 0 0 0.75 0"/>
<feBlend mode="normal" in2="shape" result="effect3_innerShadow_14_3241"/>
</filter>
<filter id="filter12_di_14_3241" x="112.322" y="116.424" width="129.945" height="86.9877" filterUnits="userSpaceOnUse" color-interpolation-filters="sRGB">
<feFlood flood-opacity="0" result="BackgroundImageFix"/>
<feColorMatrix in="SourceAlpha" type="matrix" values="0 0 0 0 0 0 0 0 0 0 0 0 0 0 0 0 0 0 127 0" result="hardAlpha"/>
<feOffset dy="1.18682"/>
<feGaussianBlur stdDeviation="0.593408"/>
<feColorMatrix type="matrix" values="0 0 0 0 0.925374 0 0 0 0 0.925374 0 0 0 0 0.925374 0 0 0 0.37 0"/>
<feBlend mode="normal" in2="BackgroundImageFix" result="effect1_dropShadow_14_3241"/>
<feBlend mode="normal" in="SourceGraphic" in2="effect1_dropShadow_14_3241" result="shape"/>
<feColorMatrix in="SourceAlpha" type="matrix" values="0 0 0 0 0 0 0 0 0 0 0 0 0 0 0 0 0 0 127 0" result="hardAlpha"/>
<feOffset dx="-4.59058" dy="5.73823"/>
<feGaussianBlur stdDeviation="2.29529"/>
<feComposite in2="hardAlpha" operator="arithmetic" k2="-1" k3="1"/>
<feColorMatrix type="matrix" values="0 0 0 0 0 0 0 0 0 0 0 0 0 0 0 0 0 0 0.8 0"/>
<feBlend mode="normal" in2="shape" result="effect2_innerShadow_14_3241"/>
</filter>
<filter id="filter13_di_14_3241" x="112.837" y="81.5905" width="92.758" height="36.4526" filterUnits="userSpaceOnUse" color-interpolation-filters="sRGB">
<feFlood flood-opacity="0" result="BackgroundImageFix"/>
<feColorMatrix in="SourceAlpha" type="matrix" values="0 0 0 0 0 0 0 0 0 0 0 0 0 0 0 0 0 0 127 0" result="hardAlpha"/>
<feOffset dy="1.18682"/>
<feGaussianBlur stdDeviation="0.593408"/>
<feColorMatrix type="matrix" values="0 0 0 0 0.925374 0 0 0 0 0.925374 0 0 0 0 0.925374 0 0 0 0.37 0"/>
<feBlend mode="normal" in2="BackgroundImageFix" result="effect1_dropShadow_14_3241"/>
<feBlend mode="normal" in="SourceGraphic" in2="effect1_dropShadow_14_3241" result="shape"/>
<feColorMatrix in="SourceAlpha" type="matrix" values="0 0 0 0 0 0 0 0 0 0 0 0 0 0 0 0 0 0 127 0" result="hardAlpha"/>
<feOffset dx="-4.59058" dy="5.73823"/>
<feGaussianBlur stdDeviation="2.29529"/>
<feComposite in2="hardAlpha" operator="arithmetic" k2="-1" k3="1"/>
<feColorMatrix type="matrix" values="0 0 0 0 0 0 0 0 0 0 0 0 0 0 0 0 0 0 0.8 0"/>
<feBlend mode="normal" in2="shape" result="effect2_innerShadow_14_3241"/>
</filter>
<filter id="filter14_f_14_3241" x="200.65" y="163.089" width="210.167" height="127.999" filterUnits="userSpaceOnUse" color-interpolation-filters="sRGB">
<feFlood flood-opacity="0" result="BackgroundImageFix"/>
<feBlend mode="normal" in="SourceGraphic" in2="BackgroundImageFix" result="shape"/>
<feGaussianBlur stdDeviation="16.067" result="effect1_foregroundBlur_14_3241"/>
</filter>
<filter id="filter15_f_14_3241" x="340.062" y="124.372" width="103.179" height="123.64" filterUnits="userSpaceOnUse" color-interpolation-filters="sRGB">
<feFlood flood-opacity="0" result="BackgroundImageFix"/>
<feBlend mode="normal" in="SourceGraphic" in2="BackgroundImageFix" result="shape"/>
<feGaussianBlur stdDeviation="10.3288" result="effect1_foregroundBlur_14_3241"/>
</filter>
<filter id="filter16_di_14_3241" x="183.737" y="192.972" width="12.0885" height="11.9614" filterUnits="userSpaceOnUse" color-interpolation-filters="sRGB">
<feFlood flood-opacity="0" result="BackgroundImageFix"/>
<feColorMatrix in="SourceAlpha" type="matrix" values="0 0 0 0 0 0 0 0 0 0 0 0 0 0 0 0 0 0 127 0" result="hardAlpha"/>
<feOffset dy="-0.569207"/>
<feGaussianBlur stdDeviation="0.284604"/>
<feColorMatrix type="matrix" values="0 0 0 0 0.78755 0 0 0 0 0.78755 0 0 0 0 0.78755 0 0 0 0.19 0"/>
<feBlend mode="normal" in2="BackgroundImageFix" result="effect1_dropShadow_14_3241"/>
<feBlend mode="normal" in="SourceGraphic" in2="effect1_dropShadow_14_3241" result="shape"/>
<feColorMatrix in="SourceAlpha" type="matrix" values="0 0 0 0 0 0 0 0 0 0 0 0 0 0 0 0 0 0 127 0" result="hardAlpha"/>
<feOffset dy="2.84604"/>
<feGaussianBlur stdDeviation="1.42302"/>
<feComposite in2="hardAlpha" operator="arithmetic" k2="-1" k3="1"/>
<feColorMatrix type="matrix" values="0 0 0 0 0 0 0 0 0 0 0 0 0 0 0 0 0 0 0.74 0"/>
<feBlend mode="normal" in2="shape" result="effect2_innerShadow_14_3241"/>
</filter>
<filter id="filter17_di_14_3241" x="133.073" y="166.502" width="12.0885" height="11.9614" filterUnits="userSpaceOnUse" color-interpolation-filters="sRGB">
<feFlood flood-opacity="0" result="BackgroundImageFix"/>
<feColorMatrix in="SourceAlpha" type="matrix" values="0 0 0 0 0 0 0 0 0 0 0 0 0 0 0 0 0 0 127 0" result="hardAlpha"/>
<feOffset dy="-0.569207"/>
<feGaussianBlur stdDeviation="0.284604"/>
<feColorMatrix type="matrix" values="0 0 0 0 0.78755 0 0 0 0 0.78755 0 0 0 0 0.78755 0 0 0 0.19 0"/>
<feBlend mode="normal" in2="BackgroundImageFix" result="effect1_dropShadow_14_3241"/>
<feBlend mode="normal" in="SourceGraphic" in2="effect1_dropShadow_14_3241" result="shape"/>
<feColorMatrix in="SourceAlpha" type="matrix" values="0 0 0 0 0 0 0 0 0 0 0 0 0 0 0 0 0 0 127 0" result="hardAlpha"/>
<feOffset dy="2.84604"/>
<feGaussianBlur stdDeviation="1.42302"/>
<feComposite in2="hardAlpha" operator="arithmetic" k2="-1" k3="1"/>
<feColorMatrix type="matrix" values="0 0 0 0 0 0 0 0 0 0 0 0 0 0 0 0 0 0 0.74 0"/>
<feBlend mode="normal" in2="shape" result="effect2_innerShadow_14_3241"/>
</filter>
<filter id="filter18_f_14_3241" x="125.511" y="185.225" width="112.155" height="91.2034" filterUnits="userSpaceOnUse" color-interpolation-filters="sRGB">
<feFlood flood-opacity="0" result="BackgroundImageFix"/>
<feBlend mode="normal" in="SourceGraphic" in2="BackgroundImageFix" result="shape"/>
<feGaussianBlur stdDeviation="3.44294" result="effect1_foregroundBlur_14_3241"/>
</filter>
<filter id="filter19_f_14_3241" x="297.987" y="181.304" width="169.923" height="135.695" filterUnits="userSpaceOnUse" color-interpolation-filters="sRGB">
<feFlood flood-opacity="0" result="BackgroundImageFix"/>
<feBlend mode="normal" in="SourceGraphic" in2="BackgroundImageFix" result="shape"/>
<feGaussianBlur stdDeviation="5.73823" result="effect1_foregroundBlur_14_3241"/>
</filter>
<filter id="filter20_ddii_14_3241" x="307.157" y="217.735" width="132.628" height="82.964" filterUnits="userSpaceOnUse" color-interpolation-filters="sRGB">
<feFlood flood-opacity="0" result="BackgroundImageFix"/>
<feColorMatrix in="SourceAlpha" type="matrix" values="0 0 0 0 0 0 0 0 0 0 0 0 0 0 0 0 0 0 127 0" result="hardAlpha"/>
<feOffset dy="1.07131"/>
<feGaussianBlur stdDeviation="0.714204"/>
<feColorMatrix type="matrix" values="0 0 0 0 0 0 0 0 0 0 0 0 0 0 0 0 0 0 0.57 0"/>
<feBlend mode="normal" in2="BackgroundImageFix" result="effect1_dropShadow_14_3241"/>
<feColorMatrix in="SourceAlpha" type="matrix" values="0 0 0 0 0 0 0 0 0 0 0 0 0 0 0 0 0 0 127 0" result="hardAlpha"/>
<feOffset dy="-0.714204"/>
<feGaussianBlur stdDeviation="0.714204"/>
<feColorMatrix type="matrix" values="0 0 0 0 0 0 0 0 0 0 0 0 0 0 0 0 0 0 1 0"/>
<feBlend mode="normal" in2="effect1_dropShadow_14_3241" result="effect2_dropShadow_14_3241"/>
<feBlend mode="normal" in="SourceGraphic" in2="effect2_dropShadow_14_3241" result="shape"/>
<feColorMatrix in="SourceAlpha" type="matrix" values="0 0 0 0 0 0 0 0 0 0 0 0 0 0 0 0 0 0 127 0" result="hardAlpha"/>
<feOffset dy="9.84614"/>
<feGaussianBlur stdDeviation="10.0343"/>
<feComposite in2="hardAlpha" operator="arithmetic" k2="-1" k3="1"/>
<feColorMatrix type="matrix" values="0 0 0 0 0 0 0 0 0 0 0 0 0 0 0 0 0 0 1 0"/>
<feBlend mode="normal" in2="shape" result="effect3_innerShadow_14_3241"/>
<feColorMatrix in="SourceAlpha" type="matrix" values="0 0 0 0 0 0 0 0 0 0 0 0 0 0 0 0 0 0 127 0" result="hardAlpha"/>
<feOffset dy="-1.07294"/>
<feGaussianBlur stdDeviation="1.07294"/>
<feComposite in2="hardAlpha" operator="arithmetic" k2="-1" k3="1"/>
<feColorMatrix type="matrix" values="0 0 0 0 0 0 0 0 0 0 0 0 0 0 0 0 0 0 1 0"/>
<feBlend mode="normal" in2="effect3_innerShadow_14_3241" result="effect4_innerShadow_14_3241"/>
</filter>
<filter id="filter21_d_14_3241" x="324.965" y="262.539" width="41.6903" height="19.4601" filterUnits="userSpaceOnUse" color-interpolation-filters="sRGB">
<feFlood flood-opacity="0" result="BackgroundImageFix"/>
<feColorMatrix in="SourceAlpha" type="matrix" values="0 0 0 0 0 0 0 0 0 0 0 0 0 0 0 0 0 0 127 0" result="hardAlpha"/>
<feOffset dx="1.13841" dy="1.41412"/>
<feGaussianBlur stdDeviation="0.707062"/>
<feColorMatrix type="matrix" values="0 0 0 0 1 0 0 0 0 1 0 0 0 0 1 0 0 0 0.24 0"/>
<feBlend mode="normal" in2="BackgroundImageFix" result="effect1_dropShadow_14_3241"/>
<feBlend mode="normal" in="SourceGraphic" in2="effect1_dropShadow_14_3241" result="shape"/>
</filter>
<filter id="filter22_d_14_3241" x="423.933" y="222.248" width="14.1984" height="18.5175" filterUnits="userSpaceOnUse" color-interpolation-filters="sRGB">
<feFlood flood-opacity="0" result="BackgroundImageFix"/>
<feColorMatrix in="SourceAlpha" type="matrix" values="0 0 0 0 0 0 0 0 0 0 0 0 0 0 0 0 0 0 127 0" result="hardAlpha"/>
<feOffset dx="1.13841" dy="1.41412"/>
<feGaussianBlur stdDeviation="0.707062"/>
<feColorMatrix type="matrix" values="0 0 0 0 1 0 0 0 0 1 0 0 0 0 1 0 0 0 0.24 0"/>
<feBlend mode="normal" in2="BackgroundImageFix" result="effect1_dropShadow_14_3241"/>
<feBlend mode="normal" in="SourceGraphic" in2="effect1_dropShadow_14_3241" result="shape"/>
</filter>
<linearGradient id="paint0_linear_14_3241" x1="40.0326" y1="45.8092" x2="42.1944" y2="14.9386" gradientUnits="userSpaceOnUse">
<stop stop-color="#3F3F3F"/>
<stop offset="1" stop-color="#5C5C5C"/>
</linearGradient>
<linearGradient id="paint1_linear_14_3241" x1="36.7568" y1="44.9938" x2="39.0266" y2="14.6941" gradientUnits="userSpaceOnUse">
<stop stop-color="#AAAAAA"/>
<stop offset="1" stop-color="#C2C2C2"/>
</linearGradient>
<linearGradient id="paint2_linear_14_3241" x1="33.3181" y1="37.555" x2="35.064" y2="12.2432" gradientUnits="userSpaceOnUse">
<stop stop-color="#3F3F3F"/>
<stop offset="1" stop-color="#5C5C5C"/>
</linearGradient>
<linearGradient id="paint3_linear_14_3241" x1="31.2394" y1="36.2779" x2="32.9765" y2="11.834" gradientUnits="userSpaceOnUse">
<stop stop-color="#AAAAAA"/>
<stop offset="1" stop-color="#C2C2C2"/>
</linearGradient>
<linearGradient id="paint4_linear_14_3241" x1="281.037" y1="319.155" x2="471.363" y2="120.815" gradientUnits="userSpaceOnUse">
<stop stop-color="#D8D8D8"/>
<stop offset="1" stop-color="white"/>
</linearGradient>
<linearGradient id="paint5_linear_14_3241" x1="303.466" y1="41.8688" x2="198.507" y2="126.723" gradientUnits="userSpaceOnUse">
<stop stop-color="#E8EAE9"/>
<stop offset="0.498386" stop-color="#707072"/>
<stop offset="1" stop-color="#2F3032"/>
</linearGradient>
<linearGradient id="paint6_linear_14_3241" x1="141.597" y1="367.319" x2="250.625" y2="197.872" gradientUnits="userSpaceOnUse">
<stop stop-color="#E8EAE9"/>
<stop offset="0.498386" stop-color="#707072"/>
<stop offset="1" stop-color="#2F3032"/>
</linearGradient>
<linearGradient id="paint7_linear_14_3241" x1="108.253" y1="178.85" x2="167.402" y2="104.935" gradientUnits="userSpaceOnUse">
<stop stop-color="#E8EAE9"/>
<stop offset="0.498386" stop-color="#707072"/>
<stop offset="1" stop-color="#2F3032"/>
</linearGradient>
<linearGradient id="paint8_linear_14_3241" x1="299.902" y1="261.426" x2="314.824" y2="224.988" gradientUnits="userSpaceOnUse">
<stop stop-color="#ECEAEA"/>
<stop offset="1" stop-color="white" stop-opacity="0"/>
</linearGradient>
<linearGradient id="paint9_linear_14_3241" x1="433.47" y1="197.608" x2="388.404" y2="210.512" gradientUnits="userSpaceOnUse">
<stop stop-color="#ECEAEA"/>
<stop offset="1" stop-color="white" stop-opacity="0"/>
</linearGradient>
<linearGradient id="paint10_linear_14_3241" x1="195.616" y1="265.244" x2="211.981" y2="235.766" gradientUnits="userSpaceOnUse">
<stop stop-color="#040404"/>
<stop offset="1" stop-color="#3C3C3C" stop-opacity="0"/>
</linearGradient>
<linearGradient id="paint11_linear_14_3241" x1="383.548" y1="268.15" x2="374.745" y2="251.8" gradientUnits="userSpaceOnUse">
<stop stop-color="#4B4B4B"/>
<stop offset="0.899322" stop-opacity="0"/>
</linearGradient>
</defs>
</svg>
